<?xml version="1.0" encoding="UTF-8" standalone="no"?>
<!DOCTYPE svg PUBLIC "-//W3C//DTD SVG 1.1//EN" "http://www.w3.org/Graphics/SVG/1.1/DTD/svg11.dtd">
<!-- Généré par Microsoft Visio, SVG Export RNN.svg Page 1 -->
<svg xmlns="http://www.w3.org/2000/svg" xmlns:xlink="http://www.w3.org/1999/xlink" xmlns:ev="http://www.w3.org/2001/xml-events"
		xmlns:v="http://schemas.microsoft.com/visio/2003/SVGExtensions/" width="3.27258in" height="2.44667in"
		viewBox="0 0 235.626 176.16" xml:space="preserve" color-interpolation-filters="sRGB" class="st9">
	<v:documentProperties v:langID="1036" v:metric="true" v:viewMarkup="false"/>

	<style type="text/css">
	<![CDATA[
		.st1 {visibility:visible}
		.st2 {fill:#5b9bd5;fill-opacity:0.22;filter:url(#filter_2);stroke:#5b9bd5;stroke-opacity:0.22}
		.st3 {fill:#5b9bd5;stroke:#c7c8c8;stroke-width:0.25}
		.st4 {fill:#feffff;font-family:Calibri;font-size:0.833336em}
		.st5 {fill:#5b9bd5;fill-opacity:0.25;filter:url(#filter_2);stroke:#5b9bd5;stroke-opacity:0.25}
		.st6 {fill:#4f87bb;stroke:#40709c;stroke-width:0.75}
		.st7 {fill:none;stroke:none;stroke-width:0.25}
		.st8 {fill:#5b9bd5;font-family:Calibri;font-size:1.00001em}
		.st9 {fill:none;fill-rule:evenodd;font-size:12px;overflow:visible;stroke-linecap:square;stroke-miterlimit:3}
	]]>
	</style>

	<defs id="Filters">
		<filter id="filter_2">
			<feGaussianBlur stdDeviation="2"/>
		</filter>
	</defs>
	<g v:mID="0" v:index="1" v:groupContext="foregroundPage">
		<title>Page 1</title>
		<v:pageProperties v:drawingScale="0.0393701" v:pageScale="0.0393701" v:drawingUnits="24" v:shadowOffsetX="8.50394"
				v:shadowOffsetY="-8.50394"/>
		<g id="shape1-1" v:mID="1" v:groupContext="shape" transform="translate(155.62,-61.2746)">
			<title>Rectangle</title>
			<desc>RNN</desc>
			<v:userDefs>
				<v:ud v:nameU="visVersion" v:val="VT0(15):26"/>
			</v:userDefs>
			<v:textBlock v:margins="rect(4,4,4,4)" v:tabSpace="42.5197"/>
			<v:textRect cx="38.2677" cy="147.46" width="76.54" height="57.4016"/>
			<g id="shadow1-2" v:groupContext="shadow" v:shadowOffsetX="0.345598" v:shadowOffsetY="-1.97279" v:shadowType="1"
					transform="matrix(1,0,0,1,0.345598,1.97279)" class="st1">
				<rect x="0" y="118.759" width="76.5354" height="57.4016" class="st2"/>
			</g>
			<rect x="0" y="118.759" width="76.5354" height="57.4016" class="st3"/>
			<text x="29.1" y="150.46" class="st4" v:langID="1036"><v:paragraph v:horizAlign="1"/><v:tabList/>RNN</text>		</g>
		<g id="shape4-7" v:mID="4" v:groupContext="shape" transform="translate(370.048,114.886) rotate(90)">
			<title>Flèche simple.4</title>
			<desc>Entrée</desc>
			<v:userDefs>
				<v:ud v:nameU="visVersion" v:val="VT0(15):26"/>
				<v:ud v:nameU="ArrowType" v:prompt="" v:val="VT0(2):26"/>
			</v:userDefs>
			<v:textBlock v:margins="rect(4,4,4,4)" v:tabSpace="42.5197"/>
			<v:textRect cx="27.9634" cy="176.16" width="55.93" height="0" transform="rotate(180)"/>
			<g id="shadow4-8" v:groupContext="shadow" v:shadowOffsetX="0.345598" v:shadowOffsetY="-1.97279" v:shadowType="1"
					transform="matrix(1,0,0,1,1.97279,-0.345598)" class="st1">
				<path d="M0 176.16 L11.34 164.82 L11.34 170.49 L55.93 170.49 L55.93 176.16 L55.93 181.83 L11.34 181.83 L11.34 187.5
							 L0 176.16 Z" class="st5"/>
			</g>
			<path d="M0 176.16 L11.34 164.82 L11.34 170.49 L55.93 170.49 L55.93 176.16 L55.93 181.83 L11.34 181.83 L11.34 187.5 L0
						 176.16 Z" class="st6"/>
			<text x="-41.43" y="-173.16" transform="rotate(180)" class="st4" v:langID="1036"><v:paragraph v:horizAlign="1"/><v:tabList/>Entrée</text>		</g>
		<g id="shape10-13" v:mID="10" v:groupContext="shape" transform="translate(12.4219,29.157) rotate(-90) scale(-1,1)">
			<title>Flèche Demi-tour</title>
			<v:userDefs>
				<v:ud v:nameU="ArrowWidth" v:prompt="" v:val="VT0(0.39370078740157):24"/>
				<v:ud v:nameU="BarWidth" v:prompt="" v:val="VT0(0.19685039370079):24"/>
				<v:ud v:nameU="visVersion" v:prompt="" v:val="VT0(15):26"/>
				<v:ud v:nameU="ArrowWidth" v:prompt="" v:val="VT0(0.54187062):1"/>
				<v:ud v:nameU="BarWidth" v:prompt="" v:val="VT0(0.19685039):1"/>
			</v:userDefs>
			<g id="shadow10-14" v:groupContext="shadow" v:shadowOffsetX="0.345598" v:shadowOffsetY="-1.97279" v:shadowType="1"
					transform="matrix(1,0,0,1,1.97279,0.345598)" class="st1">
				<path d="M0 176.16 L14.17 176.16 L14.17 110.06 A17.8784 17.8784 0 0 1 32.06 92.17 A17.8784 17.8784 0 0 1 49.94 110.06
							 L49.94 119.84 L37.52 119.84 L57.03 142.52 L76.54 119.84 L64.11 119.84 L64.11 110.06 A32.0472 32.0472
							 -180 0 0 32.06 78 A32.0472 32.0472 -180 0 0 0 110.06 L0 176.16 Z" class="st5"/>
			</g>
			<path d="M0 176.16 L14.17 176.16 L14.17 110.06 A17.8784 17.8784 0 0 1 32.06 92.17 A17.8784 17.8784 0 0 1 49.94 110.06
						 L49.94 119.84 L37.52 119.84 L57.03 142.52 L76.54 119.84 L64.11 119.84 L64.11 110.06 A32.0472 32.0472 -180
						 0 0 32.06 78 A32.0472 32.0472 -180 0 0 0 110.06 L0 176.16 Z" class="st6"/>
		</g>
		<g id="shape2-18" v:mID="2" v:groupContext="shape" transform="translate(370.048,1.55752) rotate(90)">
			<title>Flèche simple</title>
			<desc>Sortie</desc>
			<v:userDefs>
				<v:ud v:nameU="visVersion" v:val="VT0(15):26"/>
				<v:ud v:nameU="ArrowType" v:prompt="" v:val="VT0(2):26"/>
			</v:userDefs>
			<v:textBlock v:margins="rect(4,4,4,4)" v:tabSpace="42.5197"/>
			<v:textRect cx="27.9634" cy="176.16" width="55.93" height="0" transform="rotate(180)"/>
			<g id="shadow2-19" v:groupContext="shadow" v:shadowOffsetX="0.345598" v:shadowOffsetY="-1.97279" v:shadowType="1"
					transform="matrix(1,0,0,1,1.97279,-0.345598)" class="st1">
				<path d="M0 176.16 L11.34 164.82 L11.34 170.49 L55.93 170.49 L55.93 176.16 L55.93 181.83 L11.34 181.83 L11.34 187.5
							 L0 176.16 Z" class="st5"/>
			</g>
			<path d="M0 176.16 L11.34 164.82 L11.34 170.49 L55.93 170.49 L55.93 176.16 L55.93 181.83 L11.34 181.83 L11.34 187.5 L0
						 176.16 Z" class="st6"/>
			<text x="-39.95" y="-173.16" transform="rotate(180)" class="st4" v:langID="1036"><v:paragraph v:horizAlign="1"/><v:tabList/>Sortie</text>		</g>
		<g id="shape11-24" v:mID="11" v:groupContext="shape" transform="translate(0.25,-60.468)">
			<title>Feuille.11</title>
			<desc>Direction récurrente</desc>
			<v:textBlock v:margins="rect(4,4,4,4)" v:tabSpace="42.5197"/>
			<v:textRect cx="76" cy="166.16" width="152" height="20"/>
			<rect x="0" y="156.16" width="152" height="20" class="st7"/>
			<text x="26.17" y="169.76" class="st8" v:langID="1036"><v:paragraph v:horizAlign="1"/><v:tabList/>Direction récurrente</text>		</g>
	</g>
</svg>
